<?xml version="1.0" encoding="UTF-8"?>
<svg xmlns="http://www.w3.org/2000/svg" xmlns:xlink="http://www.w3.org/1999/xlink" width="100px" height="100px" viewBox="0 0 100 100" version="1.1">
<g id="surface1">
<path style=" stroke:none;fill-rule:nonzero;fill:rgb(74.117647%,74.117647%,74.117647%);fill-opacity:1;" d="M 90.625 12.5 L 9.375 12.5 C 4.195312 12.5 0 16.695312 0 21.875 L 0 78.125 C 0 83.304688 4.195312 87.5 9.375 87.5 L 90.625 87.5 C 95.804688 87.5 100 83.304688 100 78.125 L 100 21.875 C 100 16.695312 95.804688 12.5 90.625 12.5 Z M 89.453125 78.125 L 10.546875 78.125 C 9.902344 78.125 9.375 77.597656 9.375 76.953125 L 9.375 23.046875 C 9.375 22.402344 9.902344 21.875 10.546875 21.875 L 89.453125 21.875 C 90.097656 21.875 90.625 22.402344 90.625 23.046875 L 90.625 76.953125 C 90.625 77.597656 90.097656 78.125 89.453125 78.125 Z M 25 29.6875 C 20.683594 29.6875 17.1875 33.183594 17.1875 37.5 C 17.1875 41.816406 20.683594 45.3125 25 45.3125 C 29.316406 45.3125 32.8125 41.816406 32.8125 37.5 C 32.8125 33.183594 29.316406 29.6875 25 29.6875 Z M 18.75 68.75 L 81.25 68.75 L 81.25 53.125 L 64.15625 36.03125 C 63.242188 35.117188 61.757812 35.117188 60.84375 36.03125 L 37.5 59.375 L 29.78125 51.65625 C 28.867188 50.742188 27.382812 50.742188 26.46875 51.65625 L 18.75 59.375 Z M 18.75 68.75 "/>
</g>
</svg>
